<svg id="Camada_1" data-name="Camada 1" xmlns="http://www.w3.org/2000/svg" viewBox="0 0 816.54 322.56"><defs><style>.cls-1{fill:#d4af37;}</style></defs><path class="cls-1" d="M157.87,237.12a20.79,20.79,0,0,1-7.67-1.37,17.94,17.94,0,0,1-6.09-3.91,18.31,18.31,0,0,1-4-5.9,19.81,19.81,0,0,1,0-14.88,18.14,18.14,0,0,1,10.17-9.8,21.94,21.94,0,0,1,15.45.05,15.85,15.85,0,0,1,6.06,4.24l-3.38,3.28a13.67,13.67,0,0,0-4.68-3.26,14.73,14.73,0,0,0-5.57-1.06,15.39,15.39,0,0,0-5.69,1,13.55,13.55,0,0,0-4.55,2.91,13,13,0,0,0-3,4.45,15.14,15.14,0,0,0,0,11.18,13,13,0,0,0,3,4.45,13.55,13.55,0,0,0,4.55,2.91,15.19,15.19,0,0,0,5.69,1,14.54,14.54,0,0,0,5.57-1.06,13.27,13.27,0,0,0,4.68-3.3l3.38,3.27a16,16,0,0,1-6.06,4.27A20.48,20.48,0,0,1,157.87,237.12Z"/><path class="cls-1" d="M178.68,236.71V200.29h25.7v4.53h-20.5v27.36h21.23v4.53Zm4.74-16.28V216h18.72v4.43Z"/><path class="cls-1" d="M224.15,237.12a24.81,24.81,0,0,1-8-1.27,16.29,16.29,0,0,1-6-3.3l1.92-4.06a17.07,17.07,0,0,0,5.31,3,19.05,19.05,0,0,0,6.71,1.19,15.36,15.36,0,0,0,5.15-.72,6.15,6.15,0,0,0,2.91-2,4.78,4.78,0,0,0,.94-2.89,3.92,3.92,0,0,0-1.23-3,9.09,9.09,0,0,0-3.17-1.85,35.53,35.53,0,0,0-4.29-1.22c-1.56-.35-3.13-.76-4.71-1.22a21,21,0,0,1-4.32-1.8,8.78,8.78,0,0,1-3.14-2.94,8.57,8.57,0,0,1-1.2-4.76,9.54,9.54,0,0,1,1.48-5.17,10.3,10.3,0,0,1,4.58-3.8,18.88,18.88,0,0,1,7.88-1.43,24.61,24.61,0,0,1,6.3.83,17.73,17.73,0,0,1,5.41,2.39L235,207.27a16.84,16.84,0,0,0-4.94-2.27,19.31,19.31,0,0,0-5.05-.7,13.82,13.82,0,0,0-5,.78,6.09,6.09,0,0,0-2.89,2.08,5,5,0,0,0-.91,2.91,4,4,0,0,0,1.22,3.07,8.61,8.61,0,0,0,3.17,1.82,41.44,41.44,0,0,0,4.3,1.23c1.56.36,3.12.77,4.7,1.22a20,20,0,0,1,4.32,1.77,9,9,0,0,1,3.15,2.91,8.38,8.38,0,0,1,1.19,4.68,9.41,9.41,0,0,1-1.5,5.13,10.41,10.41,0,0,1-4.66,3.79A19.1,19.1,0,0,1,224.15,237.12Z"/><path class="cls-1" d="M252.55,236.71V204.82H240.06v-4.53h30.12v4.53H257.7v31.89Z"/><path class="cls-1" d="M268.52,236.71,285,200.29h5.15l16.54,36.42h-5.46l-14.72-33.5h2.08l-14.72,33.5Zm7-9.1,1.41-4.17h20.49l1.51,4.17Z"/><path class="cls-1" d="M322.72,237.12a24.9,24.9,0,0,1-8-1.27,16.37,16.37,0,0,1-6-3.3l1.93-4.06a16.9,16.9,0,0,0,5.3,3,19.09,19.09,0,0,0,6.71,1.19,15.28,15.28,0,0,0,5.15-.72,6.18,6.18,0,0,0,2.92-2,4.77,4.77,0,0,0,.93-2.89,4,4,0,0,0-1.22-3,9.09,9.09,0,0,0-3.17-1.85A35.53,35.53,0,0,0,323,221c-1.56-.35-3.13-.76-4.71-1.22A21,21,0,0,1,314,218a8.89,8.89,0,0,1-3.15-2.94,8.57,8.57,0,0,1-1.19-4.76,9.54,9.54,0,0,1,1.48-5.17,10.24,10.24,0,0,1,4.58-3.8,18.88,18.88,0,0,1,7.88-1.43,24.53,24.53,0,0,1,6.29.83,17.62,17.62,0,0,1,5.41,2.39l-1.71,4.17a16.78,16.78,0,0,0-5-2.27,19.18,19.18,0,0,0-5-.7,13.91,13.91,0,0,0-5.05.78,6.14,6.14,0,0,0-2.89,2.08,5,5,0,0,0-.91,2.91,4,4,0,0,0,1.23,3.07,8.61,8.61,0,0,0,3.17,1.82,41.94,41.94,0,0,0,4.29,1.23c1.56.36,3.13.77,4.71,1.22a20,20,0,0,1,4.32,1.77,8.87,8.87,0,0,1,3.14,2.91,8.38,8.38,0,0,1,1.2,4.68,9.34,9.34,0,0,1-1.51,5.13,10.38,10.38,0,0,1-4.65,3.79A19.15,19.15,0,0,1,322.72,237.12Z"/><path class="cls-1" d="M385,237.28,364.6,216.94a27.43,27.43,0,0,1-2.86-3.25,10.49,10.49,0,0,1-1.51-2.78,8.42,8.42,0,0,1-.47-2.76,7.62,7.62,0,0,1,1.22-4.29,8,8,0,0,1,3.44-2.86,12.23,12.23,0,0,1,5.17-1,11.73,11.73,0,0,1,4.79.91,6.9,6.9,0,0,1,4.26,6.69,7.56,7.56,0,0,1-1,3.85,11.74,11.74,0,0,1-3.25,3.43,42.32,42.32,0,0,1-6,3.59,32.54,32.54,0,0,0-4.89,3,9.47,9.47,0,0,0-2.52,2.73,6,6,0,0,0-.75,3,4.84,4.84,0,0,0,1,3,6.6,6.6,0,0,0,2.86,2.06,11.76,11.76,0,0,0,4.29.72,13,13,0,0,0,6.3-1.51,12.62,12.62,0,0,0,4.71-4.52,22.13,22.13,0,0,0,2.78-7.49l4,1.3a23.34,23.34,0,0,1-3.56,8.89,17,17,0,0,1-6.22,5.57,17.74,17.74,0,0,1-8.32,1.92,16.78,16.78,0,0,1-6.55-1.19A11,11,0,0,1,357,232.6a7.8,7.8,0,0,1-1.66-4.94,9.31,9.31,0,0,1,1.09-4.48,13.1,13.1,0,0,1,3.48-3.92,39.6,39.6,0,0,1,6.3-3.93,50,50,0,0,0,5-2.91,10.29,10.29,0,0,0,2.55-2.37,4.27,4.27,0,0,0,.75-2.42,3.72,3.72,0,0,0-1.25-2.89,5.23,5.23,0,0,0-3.59-1.12,5.53,5.53,0,0,0-3.82,1.23,4.06,4.06,0,0,0-1.38,3.2,5.36,5.36,0,0,0,.34,1.9,7.26,7.26,0,0,0,1.25,2c.6.75,1.48,1.69,2.62,2.84L387.85,234Z"/><path class="cls-1" d="M408.09,236.71V200.29h14.2a20,20,0,0,1,8.16,1.51,11.66,11.66,0,0,1,5.21,4.37,12.47,12.47,0,0,1,1.82,6.82,12.34,12.34,0,0,1-1.82,6.79,11.85,11.85,0,0,1-5.21,4.37,19.68,19.68,0,0,1-8.16,1.53H411l2.34-2.44v13.47Zm5.2-13-2.34-2.6h11.18c3.33,0,5.85-.72,7.57-2.14a8.35,8.35,0,0,0,0-12.07q-2.58-2.13-7.57-2.13H411l2.34-2.6Z"/><path class="cls-1" d="M445.12,236.71V200.29h14.2q7.08,0,11.14,3.36a11.47,11.47,0,0,1,4.05,9.34,12.26,12.26,0,0,1-1.82,6.79,11.52,11.52,0,0,1-5.2,4.34,19.9,19.9,0,0,1-8.17,1.51H448l2.35-2.39v13.47Zm5.21-13L448,221.21h11.19q5,0,7.57-2.16a8.41,8.41,0,0,0,0-12.1q-2.58-2.13-7.57-2.13H448l2.35-2.6Zm19.14,13-9.26-13.21h5.56l9.37,13.21Z"/><path class="cls-1" d="M482.94,236.71V200.29h25.7v4.53h-20.5v27.36h21.23v4.53Zm4.73-16.28V216H506.4v4.43Z"/><path class="cls-1" d="M528.41,237.12a24.81,24.81,0,0,1-8-1.27,16.42,16.42,0,0,1-6-3.3l1.93-4.06a17,17,0,0,0,5.3,3,19.15,19.15,0,0,0,6.72,1.19,15.36,15.36,0,0,0,5.15-.72,6.2,6.2,0,0,0,2.91-2,4.77,4.77,0,0,0,.93-2.89,3.91,3.91,0,0,0-1.22-3,9.09,9.09,0,0,0-3.17-1.85,35.53,35.53,0,0,0-4.29-1.22c-1.56-.35-3.13-.76-4.71-1.22a21,21,0,0,1-4.32-1.8,8.78,8.78,0,0,1-3.14-2.94,8.57,8.57,0,0,1-1.2-4.76,9.54,9.54,0,0,1,1.48-5.17,10.3,10.3,0,0,1,4.58-3.8,18.88,18.88,0,0,1,7.88-1.43,24.53,24.53,0,0,1,6.29.83A17.51,17.51,0,0,1,541,203.1l-1.71,4.17a16.84,16.84,0,0,0-4.94-2.27,19.31,19.31,0,0,0-5.05-.7,13.91,13.91,0,0,0-5,.78,6.11,6.11,0,0,0-2.88,2.08,5,5,0,0,0-.91,2.91,4,4,0,0,0,1.22,3.07,8.61,8.61,0,0,0,3.17,1.82,41.94,41.94,0,0,0,4.29,1.23c1.56.36,3.13.77,4.71,1.22a20,20,0,0,1,4.32,1.77,9,9,0,0,1,3.15,2.91,8.46,8.46,0,0,1,1.19,4.68A9.34,9.34,0,0,1,541,231.9a10.33,10.33,0,0,1-4.65,3.79A19.1,19.1,0,0,1,528.41,237.12Z"/><path class="cls-1" d="M550.1,236.71V200.29h25.7v4.53H555.3v27.36h21.22v4.53Zm4.73-16.28V216h18.73v4.43Z"/><path class="cls-1" d="M585,236.71V200.29h4.27l24.08,29.92h-2.24V200.29h5.21v36.42H612L587.91,206.8h2.24v29.91Z"/><path class="cls-1" d="M634.42,236.71V204.82H621.94v-4.53h30.12v4.53H639.57v31.89Z"/><path class="cls-1" d="M657.72,236.71V200.29h25.7v4.53H662.93v27.36h21.22v4.53Zm4.74-16.28V216h18.73v4.43Z"/><path class="cls-1" d="M703.19,237.12a24.81,24.81,0,0,1-8-1.27,16.29,16.29,0,0,1-6-3.3l1.92-4.06a17.07,17.07,0,0,0,5.31,3,19.09,19.09,0,0,0,6.71,1.19,15.32,15.32,0,0,0,5.15-.72,6.1,6.1,0,0,0,2.91-2,4.72,4.72,0,0,0,.94-2.89,4,4,0,0,0-1.22-3,9.23,9.23,0,0,0-3.18-1.85A35.53,35.53,0,0,0,703.5,221c-1.56-.35-3.13-.76-4.71-1.22a21.19,21.19,0,0,1-4.31-1.8,8.89,8.89,0,0,1-3.15-2.94,8.57,8.57,0,0,1-1.2-4.76,9.55,9.55,0,0,1,1.49-5.17,10.21,10.21,0,0,1,4.57-3.8,18.91,18.91,0,0,1,7.88-1.43,24.55,24.55,0,0,1,6.3.83,17.73,17.73,0,0,1,5.41,2.39l-1.72,4.17a16.84,16.84,0,0,0-4.94-2.27,19.25,19.25,0,0,0-5-.7,13.89,13.89,0,0,0-5,.78,6.14,6.14,0,0,0-2.89,2.08,5,5,0,0,0-.91,2.91,4,4,0,0,0,1.22,3.07,8.74,8.74,0,0,0,3.18,1.82,41.94,41.94,0,0,0,4.29,1.23c1.56.36,3.13.77,4.71,1.22a20.07,20.07,0,0,1,4.31,1.77,9,9,0,0,1,3.15,2.91,8.38,8.38,0,0,1,1.2,4.68,9.42,9.42,0,0,1-1.51,5.13,10.41,10.41,0,0,1-4.66,3.79A19.1,19.1,0,0,1,703.19,237.12Z"/><path class="cls-1" d="M388.72,290.33v5.6l-209.87-2.12v-.23Z"/><path class="cls-1" d="M470.08,295.87v-5.54l206.62,3.16v.26Z"/><path class="cls-1" d="M429.58,313.42c-2-11-7.38-18-18.94-19.33,4.7-2.46,9.62-3.79,12.62-6.94s4.3-8.26,6.82-13.54c1.2,11.28,7.29,17.78,18.34,19.88C437.29,295.73,431.15,302.13,429.58,313.42Z"/><path class="cls-1" d="M723.85,111.23c-1.53-2.92-3.05-6.45-5.62-8.1-5.59-3.58-11.56-7.13-17.87-9-16.87-4.88-34-3.41-50.89.34-16.58,3.67-31.58,11.41-46.92,18.33a216.65,216.65,0,0,1-25.8,9.71c-6.52,2-10.2-1.16-9.38-8,.69-5.7,2.92-11.23,4.54-16.81.74-2.57,2.92-5.31-.29-7.49s-5,.73-6.94,2.63c-.16.16-.51.13-.77.18-7.16-5.37-14.25-4.92-21.66,2.09-11.92,11.28-26.2,18.61-41.06,24.94a39,39,0,0,1-11.88,2.78c-5.82.49-8.52-2.24-7.36-7.93,1.12-5.51,3.67-10.72,5.24-16.17.49-1.74-.17-3.82-.31-5.74-2.05.56-4.38.7-6.1,1.78-3.52,2.21-6.46,5.39-10.08,7.35-8.88,4.79-18,9.1-27,13.63-2.92,1.47-5.79,3-9.71,5.1,2.05-8.27,3.9-15.46,5.58-22.68.62-2.68,2.64-5.81-.87-7.92s-5.13,1.24-7.14,3.15a6.73,6.73,0,0,1-.86.53c-4.64-5.48-10.34-5.28-16.24-2.57a42.36,42.36,0,0,0-6.55,4.36c-6.42,4.56-12.41,9.93-19.32,13.56a197.64,197.64,0,0,1-30.11,13c-9.78,3.2-14.15-1.74-11.22-11.57,1.28-4.32,3.49-8.36,4.88-12.66.49-1.5-.21-3.38-.37-5.09-1.87.31-4.09.1-5.53,1.06-1.73,1.16-2.62,3.49-4.18,5-17,16.4-34,32.81-53.53,46.18a53.82,53.82,0,0,1-12.31,6.62c-8.16,2.86-13-.38-14.3-8.92a20.76,20.76,0,0,1-.1-7.41q4-18,8.6-35.78a7.82,7.82,0,0,1,3.12-4c14.09-9.59,25.63-21.82,36.33-34.91,8.12-9.95,15.06-20.6,17.85-33.38.94-4.32,1.66-9.14-2.47-12.2s-8.48-1.18-12.5.7a22.11,22.11,0,0,0-5.82,3.89A91.28,91.28,0,0,0,297,30.36c-14.33,19-24.78,40-32.21,62.55a10.93,10.93,0,0,1-6.54,7.36,144.35,144.35,0,0,1-47,11.87c-17.94,1.59-35.76.87-52.86-5.71-3.4-1.32-7.05-2.51-9.86-4.69-3.85-3-6.93-6.94-10.49-10.31-1.42-1.34-4-3.52-4.78-3.08-3,1.59-1.07,4.11.22,5.89,1.61,2.22,3.37,4.68,5.66,6,6.41,3.75,12.82,7.85,19.76,10.25,25.18,8.67,50.78,7.47,76.25,1.3,8.7-2.1,17.09-5.47,25.89-8.35-.92,3.61-1.9,7.25-2.76,10.91-2.33,9.85-4.57,19.71-2.34,29.93,2.36,10.8,10.05,15.81,20.53,12.31a48.78,48.78,0,0,0,15.29-8.31c13.35-11,26.21-22.53,39.24-33.88,2.71-2.37,5.35-4.82,8.49-7.65,0,1.53.07,2.23,0,2.92-1.63,13.94,4.47,20.21,18,16.86,8.69-2.15,17-6.2,25.14-10,6.15-2.88,11.85-6.73,17.39-9.93-.28,4.39-1.24,8.91-.66,13.22.76,5.65,5.63,7.77,10.51,4.76a43.92,43.92,0,0,0,9.2-8c3.79-4.2,7.11-8.84,10.62-13.29l.75.28c-1.43,6.26-2.58,12.59-4.41,18.73a15.9,15.9,0,0,1-4.58,7c-7.13,6.29-14.85,11.93-21.81,18.4-7.13,6.63-13,14.34-15.27,24.16-1.1,4.74-1.55,9.62,2.85,12.86,4.66,3.45,9.54,1.8,13.95-1a19.06,19.06,0,0,0,5.27-4.58c4-5.53,8.55-10.92,11.48-17,5-10.39,8.86-21.33,13.41-31.94a11.11,11.11,0,0,1,4.19-5.22c12.68-7,25.52-13.67,38.32-20.44a10.6,10.6,0,0,1,1.83-.55c-.5,3.71-1.26,7-1.33,10.33-.19,8.75,4.12,13.29,12.76,13,4-.12,8.38-.62,12-2.29,10.31-4.83,20.31-10.34,30.42-15.6,1.42-.74,2.81-1.55,4.84-2.68-.52,2.72-1,4.41-1.14,6.13-.39,5-1.51,10.65,4.14,13.18s9.43-1.64,12.76-5.43c3.53-4,6.7-8.33,10.18-12.73-.21,2-.54,3.77-.56,5.5-.11,9.9,4.36,14.67,14.19,13.91a48.7,48.7,0,0,0,15.15-4c9.95-4.25,19.6-9.19,29.39-13.82,20.27-9.59,41.39-15.68,64-14.5,14.72.78,29.28,2.48,36.44,18.55.38.85,2.77,1.67,3.53,1.25C723.27,114.25,724.26,112,723.85,111.23ZM277.91,79.67c7-17.11,15.16-33.61,26.63-48.2A66.66,66.66,0,0,1,316.48,20c1.7-1.31,5.36-1.74,7.12-.76,1.3.72,1.9,4.73,1.18,6.66-2.86,7.6-5.49,15.51-9.82,22.28C305.85,62.45,294,74.51,281.3,85.64c-2,1.71-4.12,3.2-6.18,4.8l-1-.64C275.37,86.42,276.55,83,277.91,79.67ZM428.37,98.58c-5.49,7-11.25,13.73-17.14,20.37-.9,1-2.77,1.18-4.29,1.78-1.64-8.76,6.31-23.51,14-26.25,1.57-.57,3.81-1,5.06-.24S428.81,98,428.37,98.58Zm-28.1,78.21c-2.62,3-5.68,6.38-10.44,4.86-2.61-.84-3.16-6.38-1.43-11.76a27.8,27.8,0,0,1,2.05-4.83c7.33-13.23,18.62-22.57,30.83-31.11C416,149.14,411.07,164.44,400.27,176.79Zm161.17-78c-4.82,6.78-9.69,13.53-14.76,20.12-1,1.32-3,1.91-5,3.14-1.67-9.78,4-22.49,11.36-26.58a10.79,10.79,0,0,1,6.21-1.08C561.37,94.7,563.25,96.28,561.44,98.82Z"/><path class="cls-1" d="M352.81,82.07c-.36-1.51.43-2.76,1.82-5a22.8,22.8,0,0,1,4.69-5.31,25.23,25.23,0,0,1,4.22-2.88c.11,0,2.61-.82,3.82.39s1,4.28-1.59,6.49a35.27,35.27,0,0,1-3.91,4.72,33.8,33.8,0,0,1-5.95,4.77C355.28,85,353.27,84,352.81,82.07Z"/><circle class="cls-1" cx="489.31" cy="79.82" r="5.43"/></svg>